<svg width="26" height="26" viewBox="0 0 26 26" fill="none" xmlns="http://www.w3.org/2000/svg">
<path d="M0.410645 25.6031L2.17403 19.3401C1.04007 17.4137 0.443032 15.2219 0.443032 12.9702C0.443032 6.0373 6.08336 0.396973 13.0163 0.396973C19.9492 0.396973 25.5894 6.0373 25.5894 12.9702C25.5894 19.9031 19.9492 25.5434 13.0163 25.5434C10.856 25.5434 8.74072 24.9905 6.86943 23.9405L0.410645 25.6031ZM7.19962 21.6531L7.58448 21.8881C9.21602 22.8841 11.0943 23.4106 13.0163 23.4106C18.7731 23.4106 23.4566 18.727 23.4566 12.9702C23.4566 7.21336 18.7731 2.52981 13.0163 2.52981C7.25942 2.52981 2.57587 7.21336 2.57587 12.9702C2.57587 14.9761 3.14597 16.924 4.22439 18.6033L4.48357 19.0069L3.46811 22.6136L7.19962 21.6531Z" fill="white"/>
<path d="M9.48427 7.11822L8.66842 7.07374C8.41216 7.05976 8.1608 7.14539 7.96711 7.31365C7.57159 7.65711 6.93916 8.32114 6.74491 9.18644C6.45524 10.4766 6.9029 12.0565 8.06151 13.6364C9.22011 15.2163 11.3793 17.7441 15.1973 18.8237C16.4276 19.1716 17.3954 18.9371 18.1422 18.4594C18.7336 18.0811 19.1413 17.4739 19.2882 16.7874L19.4185 16.179C19.4599 15.9856 19.3617 15.7894 19.182 15.7066L16.4248 14.4357C16.2458 14.3532 16.0335 14.4053 15.9131 14.5613L14.8307 15.9646C14.7489 16.0706 14.6089 16.1126 14.4825 16.0682C13.7413 15.8077 11.2582 14.7678 9.89567 12.1433C9.83658 12.0294 9.85127 11.8913 9.93509 11.7942L10.9696 10.5974C11.0753 10.4752 11.102 10.3034 11.0385 10.1549L9.84993 7.37424C9.78666 7.2262 9.64486 7.12699 9.48427 7.11822Z" fill="white"/>
</svg>
